<svg version="1.1" id="Layer_1" xmlns="http://www.w3.org/2000/svg" xmlns:xlink="http://www.w3.org/1999/xlink" x="0px" y="0px"
	 width="100%" viewBox="0 0 512 512" enable-background="new 0 0 512 512" xml:space="preserve">
<path fill="#000000" opacity="1.000000" stroke="none" 
	d="
M513.000000,185.000000 
	C513.000000,294.640015 513.000000,403.780029 513.000000,512.960022 
	C342.401642,512.960022 171.803268,512.960022 1.102453,512.960022 
	C1.102453,342.443359 1.102453,171.886612 1.102453,1.164938 
	C171.666534,1.164938 342.333252,1.164938 513.000000,1.164938 
	C513.000000,62.196690 513.000000,123.348343 513.000000,185.000000 
M325.071442,41.023575 
	C317.713684,41.070877 310.355957,41.118176 302.070770,41.022655 
	C288.046173,41.070984 274.021606,41.119312 259.069824,41.024879 
	C251.712067,41.072361 244.354309,41.119846 236.069473,41.023476 
	C222.710999,41.072128 209.352524,41.120777 195.067261,41.025543 
	C183.375015,41.016090 171.682617,40.977413 159.990723,41.036999 
	C158.644165,41.043861 157.300400,41.598114 155.087509,41.991795 
	C139.363556,41.208057 124.743011,56.214825 124.937218,71.997627 
	C125.189224,92.477699 124.998772,112.963211 124.998772,133.446381 
	C124.998772,135.219177 124.998772,136.991974 124.998772,139.167221 
	C121.610085,139.167221 118.803566,139.167221 115.069923,139.023117 
	C106.045570,139.071274 97.021210,139.119431 87.086563,139.022018 
	C78.466362,138.849136 70.018257,139.717606 61.289986,143.228592 
	C47.617012,150.020248 36.770359,160.229355 34.456718,175.362930 
	C32.392700,188.863708 34.022945,202.929291 34.022945,216.831726 
	C43.074677,216.831726 52.535713,216.831726 62.885311,216.981354 
	C64.864204,216.986603 66.873642,217.200256 68.810165,216.916428 
	C69.913872,216.754639 71.687851,215.914261 71.816528,215.152496 
	C73.349220,206.078827 79.590294,201.112061 87.902771,197.014191 
	C91.961174,196.675903 96.014000,196.183701 100.079323,196.036575 
	C105.713615,195.832703 111.357300,195.888153 117.924026,195.982452 
	C127.270485,196.361267 136.616943,196.740097 146.276337,197.750153 
	C153.373138,200.667419 158.942245,205.282150 160.826096,212.936890 
	C161.705673,216.510910 163.367859,217.377625 166.547043,217.015915 
	C168.018326,216.848511 169.513000,216.886673 171.924286,216.980377 
	C180.615387,216.931366 189.306488,216.882355 198.924820,216.981461 
	C208.949356,216.932068 218.973877,216.882660 229.925629,216.980804 
	C240.283478,216.931763 250.641327,216.882721 261.926300,216.981232 
	C272.617249,216.932419 283.308167,216.883606 294.926361,216.981125 
	C305.617279,216.932159 316.308197,216.883194 327.926392,216.980301 
	C334.863007,216.986755 341.802399,217.096237 348.733673,216.906601 
	C350.012390,216.871613 352.161987,215.832336 352.372833,214.906586 
	C353.783630,208.711960 357.988251,204.485306 362.796173,200.003128 
	C365.327850,198.999435 367.798462,197.363586 370.402802,197.111847 
	C377.905609,196.386642 385.462372,196.220047 393.925659,195.979340 
	C403.600922,196.022141 413.276215,196.064941 423.323914,196.764435 
	C431.797394,198.155746 438.466827,202.900314 440.610535,210.849014 
	C442.429108,217.592117 446.203644,217.265457 451.013062,216.993835 
	C451.675720,216.956421 452.336578,216.887863 453.926025,216.978271 
	C462.847137,216.978271 471.768250,216.978271 480.998810,216.978271 
	C480.998810,205.790314 481.309021,195.160172 480.929840,184.554672 
	C480.276855,166.291946 470.996399,153.404510 454.752625,144.296448 
	C444.659607,139.542435 433.976044,138.443008 422.070618,139.023163 
	C413.046295,139.070496 404.021942,139.117813 394.114777,139.023270 
	C392.517914,139.023270 390.921021,139.023270 388.998779,139.023270 
	C388.998779,136.844406 388.998749,135.201996 388.998749,133.559570 
	C388.998718,112.596039 389.012482,91.632477 388.971497,70.669029 
	C388.968353,69.059753 388.732147,67.413414 388.345276,65.848320 
	C385.149017,52.917637 376.656097,45.391171 363.123871,42.024124 
	C350.748901,41.738163 338.373932,41.452206 325.071442,41.023575 
M400.069122,211.025665 
	C392.261810,211.017349 384.454498,211.005493 376.647186,211.001923 
	C370.943604,210.999329 366.054962,214.516754 366.924713,220.495911 
	C367.350647,223.424011 367.294525,226.501404 366.935242,229.447647 
	C366.241547,235.136459 369.685120,238.687943 376.093445,238.914246 
	C384.383148,239.207001 392.694489,238.887527 401.924164,238.977417 
	C407.575775,238.984100 413.228424,239.061447 418.878662,238.976501 
	C423.962341,238.900070 427.834686,235.057617 427.978912,230.016098 
	C428.073944,226.694305 428.068756,223.365677 427.980316,220.043518 
	C427.846100,215.001648 423.982635,211.085419 418.936829,211.031036 
	C412.957855,210.966553 406.976624,211.113190 400.069122,211.025665 
M110.071503,211.022568 
	C105.081070,211.015152 100.089455,210.936569 95.100548,211.020248 
	C90.060326,211.104813 86.153740,214.980652 86.015968,219.980591 
	C85.924370,223.305054 85.929131,226.635895 86.014931,229.960663 
	C86.144547,234.983078 90.022049,238.912186 95.040184,238.972809 
	C100.358093,239.037048 105.678581,238.888123 111.924980,238.981537 
	C120.230202,238.987076 128.535507,239.016235 136.840637,238.991135 
	C144.257050,238.968719 146.984009,236.266907 146.994659,229.030884 
	C146.998825,226.207092 147.001877,223.383270 146.993942,220.559494 
	C146.977692,214.781784 143.569870,211.071335 137.894684,211.033066 
	C128.929810,210.972580 119.963554,211.112564 110.071503,211.022568 
M306.069061,233.024338 
	C295.711884,233.072098 285.354706,233.119858 274.070343,233.024017 
	C261.379211,233.071564 248.688095,233.119110 235.069717,233.023758 
	C222.712204,233.071289 210.354691,233.118835 197.069946,233.022903 
	C186.712723,233.071014 176.355499,233.119141 165.200623,233.023666 
	C163.812241,234.001053 161.559830,234.715530 161.169952,235.996750 
	C157.506104,248.036942 148.828491,253.135605 136.070831,254.021790 
	C127.380035,254.070145 118.689247,254.118515 109.071823,254.021744 
	C100.294998,253.810394 91.328339,255.174454 82.748299,250.267975 
	C79.929504,247.414291 75.391815,244.958344 74.621788,241.630585 
	C72.510109,232.504730 66.612930,232.156555 59.468422,232.993637 
	C58.649586,233.089584 57.821972,233.110672 56.071350,233.020767 
	C48.475803,233.020767 40.880260,233.020767 32.998180,233.020767 
	C32.998180,235.359924 32.998177,237.165390 32.998177,238.970856 
	C32.998188,300.893738 33.085697,362.816803 32.945045,424.739349 
	C32.902710,443.378906 41.559959,456.612457 57.279812,466.761749 
	C64.466988,470.034302 71.805313,472.658844 80.374748,472.778168 
	C90.916084,472.796173 101.457420,472.814178 112.925537,472.981445 
	C119.949081,472.930664 126.972626,472.879883 134.923309,472.979218 
	C145.281815,472.930389 155.640320,472.881531 166.925842,472.981262 
	C176.281784,472.931030 185.637741,472.880798 195.921646,472.979553 
	C208.946762,472.930695 221.971878,472.881836 235.924545,472.980438 
	C244.615158,472.931030 253.305756,472.881622 262.923798,472.980164 
	C277.281891,472.931458 291.639954,472.882721 306.925323,472.980438 
	C313.949768,472.931519 320.974243,472.882568 328.926056,472.979889 
	C341.949799,472.931458 354.973541,472.883026 368.924469,472.980408 
	C375.282471,472.931854 381.640472,472.883270 388.926025,472.979919 
	C401.616821,472.931671 414.307617,472.883423 427.880341,472.979706 
	C436.467834,472.306396 445.168518,472.216339 453.802246,468.001526 
	C456.566620,466.327271 459.559662,464.937378 462.056091,462.929871 
	C473.384888,453.820007 480.958160,442.534607 480.972900,427.435791 
	C481.034302,364.653381 480.998779,301.870911 480.998810,239.088440 
	C480.998810,237.156174 480.998840,235.223907 480.998840,233.166275 
	C471.257416,233.166275 462.127838,233.166275 452.101990,233.024597 
	C451.106506,233.016739 450.100037,233.101334 449.117432,232.984909 
	C445.002167,232.497269 442.565430,233.322357 441.108246,238.147324 
	C438.644196,246.305984 432.499847,251.339661 423.176849,253.346710 
	C421.583862,253.564758 419.993164,253.951096 418.397522,253.972748 
	C409.931976,254.087631 401.465240,254.110947 392.071411,254.023712 
	C383.422577,253.331680 374.773743,252.639648 365.799744,251.302780 
	C359.329315,248.514755 354.882935,243.777542 353.101135,236.989014 
	C352.359589,234.163696 351.456177,232.767914 348.348022,232.948517 
	C343.909119,233.206421 339.449738,233.111008 334.071503,233.023392 
	C325.046417,233.071350 316.021332,233.119324 306.069061,233.024338 
z"/>
<path fill="#FE5A87" opacity="1.000000" stroke="none" 
	d="
M367.997284,472.834595 
	C354.973541,472.883026 341.949799,472.931458 328.580078,472.587524 
	C332.502319,470.222870 333.095337,466.697235 333.075470,462.376038 
	C332.933960,431.592255 333.024139,400.807465 332.956757,370.023193 
	C332.951019,367.399658 332.335632,364.777466 332.323425,362.005219 
	C333.372711,360.795044 334.046448,359.690643 334.839905,358.680328 
	C341.957397,349.617584 342.008881,339.375092 334.859467,329.914185 
	C334.605988,329.430664 334.404724,329.197205 334.081177,328.765747 
	C334.004608,328.528290 333.886841,328.043457 334.146545,327.714233 
	C334.604187,325.421692 334.972046,323.458557 334.974487,321.494965 
	C335.011017,292.052155 334.999390,262.609344 334.999084,233.166504 
	C339.449738,233.111008 343.909119,233.206421 348.348022,232.948517 
	C351.456177,232.767914 352.359589,234.163696 353.101135,236.989014 
	C354.882935,243.777542 359.329315,248.514755 365.588654,251.772751 
	C364.918365,254.409531 364.060211,256.575928 364.057953,258.743225 
	C363.987183,325.981140 364.019012,393.219116 363.958679,460.457031 
	C363.954498,465.116882 363.599213,469.698792 367.997284,472.834595 
z"/>
<path fill="#FD4485" opacity="1.000000" stroke="none" 
	d="
M453.086090,468.089813 
	C445.168518,472.216339 436.467834,472.306396 427.331482,472.582977 
	C423.624664,469.725037 422.912537,466.514008 422.919830,462.564880 
	C423.034180,400.565308 422.964935,338.565430 423.044189,276.565735 
	C423.054169,268.765656 423.666321,260.966370 423.999481,253.166733 
	C432.499847,251.339661 438.644196,246.305984 441.108246,238.147324 
	C442.565430,233.322357 445.002167,232.497269 449.117432,232.984909 
	C450.100037,233.101334 451.106506,233.016739 452.550598,233.553452 
	C452.999512,243.063461 452.996796,252.044632 453.000427,261.025787 
	C453.028259,330.047119 453.057404,399.068481 453.086090,468.089813 
z"/>
<path fill="#FE838A" opacity="1.000000" stroke="none" 
	d="
M194.993683,472.830566 
	C185.637741,472.880798 176.281784,472.931030 166.462601,472.448975 
	C165.999008,392.333557 165.998642,312.750397 165.998276,233.167267 
	C176.355499,233.119141 186.712723,233.071014 197.534271,233.552673 
	C197.998322,262.999542 197.998062,291.916595 197.593842,320.905853 
	C195.281494,321.323669 193.301071,321.450256 191.476410,322.050415 
	C179.349915,326.038879 171.197342,337.003784 174.725266,350.261017 
	C177.904297,362.207123 186.841354,366.616089 197.998291,368.624512 
	C197.999252,399.122772 197.967178,429.162842 198.033051,459.202728 
	C198.043610,464.021179 198.235016,468.781952 194.993683,472.830566 
z"/>
<path fill="#FD4C85" opacity="1.000000" stroke="none" 
	d="
M423.588165,253.256714 
	C423.666321,260.966370 423.054169,268.765656 423.044189,276.565735 
	C422.964935,338.565430 423.034180,400.565308 422.919830,462.564880 
	C422.912537,466.514008 423.624664,469.725037 426.890533,472.510742 
	C414.307617,472.883423 401.616821,472.931671 388.579987,472.588013 
	C392.502136,470.222687 393.079193,466.695068 393.072754,462.374756 
	C392.969330,392.971954 392.999268,323.568939 392.998901,254.165985 
	C401.465240,254.110947 409.931976,254.087631 418.397522,253.972748 
	C419.993164,253.951096 421.583862,253.564758 423.588165,253.256714 
z"/>
<path fill="#FE8A8B" opacity="1.000000" stroke="none" 
	d="
M165.599457,233.095459 
	C165.998642,312.750397 165.999008,392.333557 165.999084,472.374695 
	C155.640320,472.881531 145.281815,472.930389 134.568298,472.582153 
	C137.423004,469.481934 138.067581,465.985107 138.061691,461.920227 
	C137.972702,400.463104 138.035431,339.005768 137.955704,277.548645 
	C137.945602,269.754028 137.332077,261.960236 136.998108,254.166046 
	C148.828491,253.135605 157.506104,248.036942 161.169952,235.996750 
	C161.559830,234.715530 163.812241,234.001053 165.599457,233.095459 
z"/>
<path fill="#FD5386" opacity="1.000000" stroke="none" 
	d="
M392.535156,254.094849 
	C392.999268,323.568939 392.969330,392.971954 393.072754,462.374756 
	C393.079193,466.695068 392.502136,470.222687 388.116211,472.515442 
	C381.640472,472.883270 375.282471,472.931854 368.460876,472.907501 
	C363.599213,469.698792 363.954498,465.116882 363.958679,460.457031 
	C364.019012,393.219116 363.987183,325.981140 364.057953,258.743225 
	C364.060211,256.575928 364.918365,254.409531 365.751221,252.095154 
	C374.773743,252.639648 383.422577,253.331680 392.535156,254.094849 
z"/>
<path fill="#FD3D84" opacity="1.000000" stroke="none" 
	d="
M453.444153,468.045654 
	C453.057404,399.068481 453.028259,330.047119 453.000427,261.025787 
	C452.996796,252.044632 452.999512,243.063461 452.998779,233.624298 
	C462.127838,233.166275 471.257416,233.166275 480.998840,233.166275 
	C480.998840,235.223907 480.998810,237.156174 480.998810,239.088440 
	C480.998779,301.870911 481.034302,364.653381 480.972900,427.435791 
	C480.958160,442.534607 473.384888,453.820007 462.056091,462.929871 
	C459.559662,464.937378 456.566620,466.327271 453.444153,468.045654 
z"/>
<path fill="#FF908B" opacity="1.000000" stroke="none" 
	d="
M136.534470,254.093918 
	C137.332077,261.960236 137.945602,269.754028 137.955704,277.548645 
	C138.035431,339.005768 137.972702,400.463104 138.061691,461.920227 
	C138.067581,465.985107 137.423004,469.481934 134.104736,472.507141 
	C126.972626,472.879883 119.949081,472.930664 112.373276,472.541138 
	C111.214012,469.236206 110.081085,466.372284 110.077011,463.506805 
	C109.977905,393.726929 109.998970,323.946899 109.998451,254.166870 
	C118.689247,254.118515 127.380035,254.070145 136.534470,254.093918 
z"/>
<path fill="#FF9D8C" opacity="1.000000" stroke="none" 
	d="
M56.998428,233.166458 
	C57.821972,233.110672 58.649586,233.089584 59.468422,232.993637 
	C66.612930,232.156555 72.510109,232.504730 74.621788,241.630585 
	C75.391815,244.958344 79.929504,247.414291 82.885628,251.052536 
	C83.015305,254.336349 83.001007,256.835602 83.000969,259.334839 
	C82.999741,327.481781 83.000854,395.628754 82.997108,463.775696 
	C82.996933,466.908844 83.572647,470.273682 79.900627,472.037781 
	C71.805313,472.658844 64.466988,470.034302 57.128021,465.962158 
	C56.983631,387.830536 56.991028,310.498505 56.998428,233.166458 
z"/>
<path fill="#FF978C" opacity="1.000000" stroke="none" 
	d="
M80.137688,472.407959 
	C83.572647,470.273682 82.996933,466.908844 82.997108,463.775696 
	C83.000854,395.628754 82.999741,327.481781 83.000969,259.334839 
	C83.001007,256.835602 83.015305,254.336349 83.032913,251.361237 
	C91.328339,255.174454 100.294998,253.810394 109.535141,254.094299 
	C109.998970,323.946899 109.977905,393.726929 110.077011,463.506805 
	C110.081085,466.372284 111.214012,469.236206 111.909882,472.466492 
	C101.457420,472.814178 90.916084,472.796173 80.137688,472.407959 
z"/>
<path fill="#FFA38D" opacity="1.000000" stroke="none" 
	d="
M56.534889,233.093613 
	C56.991028,310.498505 56.983631,387.830536 56.965424,465.638245 
	C41.559959,456.612457 32.902710,443.378906 32.945045,424.739349 
	C33.085697,362.816803 32.998188,300.893738 32.998177,238.970856 
	C32.998177,237.165390 32.998180,235.359924 32.998180,233.020767 
	C40.880260,233.020767 48.475803,233.020767 56.534889,233.093613 
z"/>
<path fill="#FE7A89" opacity="1.000000" stroke="none" 
	d="
M195.457672,472.905060 
	C198.235016,468.781952 198.043610,464.021179 198.033051,459.202728 
	C197.967178,429.162842 197.999252,399.122772 198.461945,368.550476 
	C210.512360,368.018158 222.099731,368.018158 233.997955,368.018158 
	C233.997955,378.357025 233.912247,388.147095 234.035675,397.934540 
	C234.093597,402.526367 234.554596,407.113159 234.474823,411.984467 
	C233.744400,414.332611 233.062363,416.396576 233.049332,418.464722 
	C232.956238,433.240417 232.879807,448.018707 233.090378,462.791992 
	C233.138199,466.147339 234.331131,469.486389 234.996994,472.832947 
	C221.971878,472.881836 208.946762,472.930695 195.457672,472.905060 
z"/>
<path fill="#FD5386" opacity="1.000000" stroke="none" 
	d="
M363.998444,42.166157 
	C376.656097,45.391171 385.149017,52.917637 388.345276,65.848320 
	C388.732147,67.413414 388.968353,69.059753 388.971497,70.669029 
	C389.012482,91.632477 388.998718,112.596039 388.998749,133.559570 
	C388.998749,135.201996 388.998779,136.844406 388.998779,139.023270 
	C390.921021,139.023270 392.517914,139.023270 394.467773,139.460068 
	C394.213867,142.422852 393.106812,144.943863 393.081573,147.475662 
	C392.920898,163.593796 392.998718,179.714310 392.997955,195.834030 
	C385.462372,196.220047 377.905609,196.386642 370.402802,197.111847 
	C367.798462,197.363586 365.327850,198.999435 362.254822,199.666077 
	C361.475677,197.199417 361.040100,195.070602 361.031860,192.940125 
	C360.972565,177.636597 361.046906,162.332443 360.955017,147.029236 
	C360.939270,144.406006 360.332123,141.786316 360.458801,139.092102 
	C364.853302,139.019226 368.787262,139.019226 372.994598,139.019226 
	C372.994598,117.619133 373.233551,96.834717 372.859375,76.061340 
	C372.735596,69.189690 370.005768,62.978531 362.999756,59.379120 
	C363.332794,53.338371 363.665619,47.752262 363.998444,42.166157 
z"/>
<path fill="#FE6287" opacity="1.000000" stroke="none" 
	d="
M332.003448,362.154633 
	C332.335632,364.777466 332.951019,367.399658 332.956757,370.023193 
	C333.024139,400.807465 332.933960,431.592255 333.075470,462.376038 
	C333.095337,466.697235 332.502319,470.222870 328.116394,472.514404 
	C320.974243,472.882568 313.949768,472.931519 306.344727,472.587830 
	C301.500031,470.222107 300.899963,466.699646 300.923950,462.378937 
	C301.074341,435.265472 300.956604,408.150604 301.044647,381.036591 
	C301.058563,376.745514 301.665497,372.456329 302.461182,368.093018 
	C313.034363,368.132874 323.266327,368.849426 332.003448,362.154633 
z"/>
<path fill="#FF8E8B" opacity="1.000000" stroke="none" 
	d="
M145.963394,197.118927 
	C136.616943,196.740097 127.270485,196.361267 117.461151,195.449509 
	C116.998741,187.602264 117.119728,180.285507 116.971756,172.974213 
	C116.743652,161.703247 116.331261,150.436035 115.997047,139.167221 
	C118.803566,139.167221 121.610085,139.167221 124.998772,139.167221 
	C124.998772,136.991974 124.998772,135.219177 124.998772,133.446381 
	C124.998772,112.963211 125.189224,92.477699 124.937218,71.997627 
	C124.743011,56.214825 139.363556,41.208057 155.688461,42.333534 
	C156.524780,47.727711 156.760147,52.780144 156.651245,58.001602 
	C154.800201,58.665096 153.268021,59.093773 151.790894,59.664902 
	C143.284409,62.953918 141.146286,70.163101 141.062790,78.160950 
	C140.865082,97.099663 140.993973,116.041847 141.011078,134.982605 
	C141.012222,136.264923 141.181808,137.547089 141.275116,138.858292 
	C143.711548,138.970337 145.854736,139.068878 147.920471,139.539734 
	C147.228546,143.821854 146.139999,147.724823 146.083527,151.642670 
	C145.865005,166.798843 145.975479,181.959763 145.963394,197.118927 
z"/>
<path fill="#FE7A89" opacity="1.000000" stroke="none" 
	d="
M197.997803,320.833679 
	C197.998062,291.916595 197.998322,262.999542 197.997894,233.624420 
	C210.354691,233.118835 222.712204,233.071289 235.534058,233.553223 
	C235.999481,243.883423 235.814087,253.690430 236.143738,263.480072 
	C236.218353,265.696320 238.082642,267.852295 238.972687,270.360657 
	C238.213257,271.448914 237.549118,272.175262 237.004120,272.982086 
	C233.134338,278.710815 234.019348,285.222534 234.004105,291.575806 
	C233.980743,301.311371 233.997955,311.046997 233.997955,320.997345 
	C232.360809,320.997345 231.381271,321.001556 230.401779,320.996704 
	C219.600449,320.943176 208.799133,320.888245 197.997803,320.833679 
z"/>
<path fill="#FE6988" opacity="1.000000" stroke="none" 
	d="
M301.998260,368.166290 
	C301.665497,372.456329 301.058563,376.745514 301.044647,381.036591 
	C300.956604,408.150604 301.074341,435.265472 300.923950,462.378937 
	C300.899963,466.699646 301.500031,470.222107 305.881104,472.514648 
	C291.639954,472.882721 277.281891,472.931458 262.578339,472.587067 
	C266.513000,470.221893 267.159485,466.690796 267.076599,462.361542 
	C266.843964,450.205170 266.974884,438.041840 267.098877,425.564941 
	C273.113281,421.736542 277.786713,417.185211 279.231415,410.221130 
	C279.822845,407.370209 279.945740,404.385529 279.967102,401.459381 
	C280.047852,390.390533 279.999573,379.320679 279.999573,368.166290 
	C287.752472,368.166290 294.875366,368.166290 301.998260,368.166290 
z"/>
<path fill="#FE6988" opacity="1.000000" stroke="none" 
	d="
M274.997528,233.167618 
	C285.354706,233.119858 295.711884,233.072098 306.533478,233.553787 
	C306.997559,262.999725 306.997223,291.916229 306.533264,320.904175 
	C297.483490,320.975647 288.897308,320.975647 279.999573,320.975647 
	C279.999573,312.812103 279.940826,305.191376 280.013977,297.571899 
	C280.112549,287.306335 281.138947,276.872314 274.039368,267.694763 
	C274.413666,265.163391 274.937683,263.051849 274.958832,260.935272 
	C275.051300,251.680191 274.997955,242.423630 274.997528,233.167618 
z"/>
<path fill="#FE6988" opacity="1.000000" stroke="none" 
	d="
M293.999115,216.834793 
	C283.308167,216.883606 272.617249,216.932419 261.463104,216.449402 
	C261.000336,193.678528 261.083984,171.438843 260.911865,149.201111 
	C260.885956,145.851334 259.666290,142.510788 259.462402,139.092224 
	C271.617157,139.067291 283.308319,139.116104 294.914154,139.563721 
	C294.552948,142.427811 294.044067,144.892471 294.037476,147.358459 
	C293.975708,170.517120 293.999817,193.675980 293.999115,216.834793 
z"/>
<path fill="#FE6287" opacity="1.000000" stroke="none" 
	d="
M294.462738,216.907959 
	C293.999817,193.675980 293.975708,170.517120 294.037476,147.358459 
	C294.044067,144.892471 294.552948,142.427811 295.377777,139.490662 
	C306.284332,139.067612 316.641937,139.116425 326.999939,139.623535 
	C326.999939,165.665970 326.999512,191.250092 326.999115,216.834213 
	C316.308197,216.883194 305.617279,216.932159 294.462738,216.907959 
z"/>
<path fill="#FE5A87" opacity="1.000000" stroke="none" 
	d="
M327.462769,216.907257 
	C326.999512,191.250092 326.999939,165.665970 327.463562,139.550522 
	C338.617218,139.067795 349.307709,139.116379 359.998169,139.164978 
	C360.332123,141.786316 360.939270,144.406006 360.955017,147.029236 
	C361.046906,162.332443 360.972565,177.636597 361.031860,192.940125 
	C361.040100,195.070602 361.475677,197.199417 361.880951,199.719406 
	C357.988251,204.485306 353.783630,208.711960 352.372833,214.906586 
	C352.161987,215.832336 350.012390,216.871613 348.733673,216.906601 
	C341.802399,217.096237 334.863007,216.986755 327.462769,216.907257 
z"/>
<path fill="#FE6187" opacity="1.000000" stroke="none" 
	d="
M306.996857,320.832703 
	C306.997223,291.916229 306.997559,262.999725 306.997070,233.625275 
	C316.021332,233.119324 325.046417,233.071350 334.535278,233.094940 
	C334.999390,262.609344 335.011017,292.052155 334.974487,321.494965 
	C334.972046,323.458557 334.604187,325.421692 333.791016,327.688354 
	C331.304932,326.731598 329.497589,325.362305 327.551636,324.231506 
	C321.144928,320.508575 313.991302,321.113007 306.996857,320.832703 
z"/>
<path fill="#FE7389" opacity="1.000000" stroke="none" 
	d="
M258.998810,139.165985 
	C259.666290,142.510788 260.885956,145.851334 260.911865,149.201111 
	C261.083984,171.438843 261.000336,193.678528 260.999542,216.375641 
	C250.641327,216.882721 240.283478,216.931763 229.462402,216.449005 
	C228.999451,194.623947 228.945831,173.330429 229.045227,152.037628 
	C229.065262,147.745895 229.665390,143.456894 230.461761,139.092865 
	C240.283218,139.068054 249.641006,139.117020 258.998810,139.165985 
z"/>
<path fill="#FE7B89" opacity="1.000000" stroke="none" 
	d="
M229.998077,139.166626 
	C229.665390,143.456894 229.065262,147.745895 229.045227,152.037628 
	C228.945831,173.330429 228.999451,194.623947 228.998795,216.375229 
	C218.973877,216.882660 208.949356,216.932068 198.461792,216.449371 
	C197.999100,192.955383 198.031616,169.993393 197.955688,147.031769 
	C197.947021,144.408722 197.331085,141.787704 197.460495,139.091766 
	C208.615555,139.067398 219.306808,139.117020 229.998077,139.166626 
z"/>
<path fill="#FE838A" opacity="1.000000" stroke="none" 
	d="
M196.996704,139.165741 
	C197.331085,141.787704 197.947021,144.408722 197.955688,147.031769 
	C198.031616,169.993393 197.999100,192.955383 197.998169,216.375305 
	C189.306488,216.882355 180.615387,216.931366 171.461258,216.448074 
	C170.998611,194.623199 170.945160,173.330399 171.044510,152.038284 
	C171.064529,147.746643 171.663895,143.457718 172.459961,139.093353 
	C180.948074,139.068008 188.972397,139.116867 196.996704,139.165741 
z"/>
<path fill="#FD4485" opacity="1.000000" stroke="none" 
	d="
M422.998108,139.165314 
	C433.976044,138.443008 444.659607,139.542435 454.645325,144.891846 
	C454.025360,147.858002 453.080475,150.226395 453.067627,152.599854 
	C452.951569,174.010635 452.998901,195.422318 452.998291,216.833725 
	C452.336578,216.887863 451.675720,216.956421 451.013062,216.993835 
	C446.203644,217.265457 442.429108,217.592117 440.610535,210.849014 
	C438.466827,202.900314 431.797394,198.155746 423.305481,196.045929 
	C423.519958,194.196503 423.971313,193.062073 423.953186,191.935165 
	C423.670593,174.344635 423.327362,156.755096 422.998108,139.165314 
z"/>
<path fill="#FFA38D" opacity="1.000000" stroke="none" 
	d="
M61.996754,216.831726 
	C52.535713,216.831726 43.074677,216.831726 34.022945,216.831726 
	C34.022945,202.929291 32.392700,188.863708 34.456718,175.362930 
	C36.770359,160.229355 47.617012,150.020248 61.644058,143.656448 
	C61.997669,168.333450 61.997211,192.582581 61.996754,216.831726 
z"/>
<path fill="#FD4C85" opacity="1.000000" stroke="none" 
	d="
M422.534363,139.094238 
	C423.327362,156.755096 423.670593,174.344635 423.953186,191.935165 
	C423.971313,193.062073 423.519958,194.196503 423.119263,195.717590 
	C413.276215,196.064941 403.600922,196.022141 393.461792,195.906677 
	C392.998718,179.714310 392.920898,163.593796 393.081573,147.475662 
	C393.106812,144.943863 394.213867,142.422852 394.909180,139.531006 
	C404.021942,139.117813 413.046295,139.070496 422.534363,139.094238 
z"/>
<path fill="#FE8A8B" opacity="1.000000" stroke="none" 
	d="
M171.996140,139.167542 
	C171.663895,143.457718 171.064529,147.746643 171.044510,152.038284 
	C170.945160,173.330399 170.998611,194.623199 170.997650,216.373703 
	C169.513000,216.886673 168.018326,216.848511 166.547043,217.015915 
	C163.367859,217.377625 161.705673,216.510910 160.826096,212.936890 
	C158.942245,205.282150 153.373138,200.667419 146.119873,197.434540 
	C145.975479,181.959763 145.865005,166.798843 146.083527,151.642670 
	C146.139999,147.724823 147.228546,143.821854 148.384125,139.465683 
	C156.615524,139.068726 164.305832,139.118134 171.996140,139.167542 
z"/>
<path fill="#FD3D84" opacity="1.000000" stroke="none" 
	d="
M453.462158,216.906006 
	C452.998901,195.422318 452.951569,174.010635 453.067627,152.599854 
	C453.080475,150.226395 454.025360,147.858002 454.822388,145.218323 
	C470.996399,153.404510 480.276855,166.291946 480.929840,184.554672 
	C481.309021,195.160172 480.998810,205.790314 480.998810,216.978271 
	C471.768250,216.978271 462.847137,216.978271 453.462158,216.906006 
z"/>
<path fill="#FF9D8C" opacity="1.000000" stroke="none" 
	d="
M62.441032,216.906540 
	C61.997211,192.582581 61.997669,168.333450 61.997520,143.626343 
	C70.018257,139.717606 78.466362,138.849136 87.513962,139.504654 
	C87.627617,142.275375 87.050911,144.562439 87.042160,146.851700 
	C86.978111,163.605408 87.027962,180.359558 87.041878,197.113571 
	C79.590294,201.112061 73.349220,206.078827 71.816528,215.152496 
	C71.687851,215.914261 69.913872,216.754639 68.810165,216.916428 
	C66.873642,217.200256 64.864204,216.986603 62.441032,216.906540 
z"/>
<path fill="#FF978C" opacity="1.000000" stroke="none" 
	d="
M87.472321,197.063873 
	C87.027962,180.359558 86.978111,163.605408 87.042160,146.851700 
	C87.050911,144.562439 87.627617,142.275375 87.969101,139.577438 
	C97.021210,139.119431 106.045570,139.071274 115.533485,139.095169 
	C116.331261,150.436035 116.743652,161.703247 116.971756,172.974213 
	C117.119728,180.285507 116.998741,187.602264 116.997620,195.374573 
	C111.357300,195.888153 105.713615,195.832703 100.079323,196.036575 
	C96.014000,196.183701 91.961174,196.675903 87.472321,197.063873 
z"/>
<path fill="#FE7389" opacity="1.000000" stroke="none" 
	d="
M266.962433,425.881256 
	C266.974884,438.041840 266.843964,450.205170 267.076599,462.361542 
	C267.159485,466.690796 266.513000,470.221893 262.114624,472.513092 
	C253.305756,472.881622 244.615158,472.931030 235.460770,472.906677 
	C234.331131,469.486389 233.138199,466.147339 233.090378,462.791992 
	C232.879807,448.018707 232.956238,433.240417 233.049332,418.464722 
	C233.062363,416.396576 233.744400,414.332611 234.573578,412.299683 
	C238.773346,420.159973 244.045914,426.350342 253.314011,426.963562 
	C257.819885,427.261688 262.410278,426.282318 266.962433,425.881256 
z"/>
<path fill="#FE7089" opacity="1.000000" stroke="none" 
	d="
M274.533936,233.095825 
	C274.997955,242.423630 275.051300,251.680191 274.958832,260.935272 
	C274.937683,263.051849 274.413666,265.163391 273.682587,267.639587 
	C259.049591,256.415131 247.606339,261.187561 239.123154,270.036011 
	C238.082642,267.852295 236.218353,265.696320 236.143738,263.480072 
	C235.814087,253.690430 235.999481,243.883423 235.997681,233.624680 
	C248.688095,233.119110 261.379211,233.071564 274.533936,233.095825 
z"/>
<path fill="#FF908B" opacity="1.000000" stroke="none" 
	d="
M110.997887,211.167694 
	C119.963554,211.112564 128.929810,210.972580 137.894684,211.033066 
	C143.569870,211.071335 146.977692,214.781784 146.993942,220.559494 
	C147.001877,223.383270 146.998825,226.207092 146.994659,229.030884 
	C146.984009,236.266907 144.257050,238.968719 136.840637,238.991135 
	C128.535507,239.016235 120.230202,238.987076 111.540543,238.537354 
	C114.176750,229.099960 113.905258,220.126083 110.997887,211.167694 
z"/>
<path fill="#FD5386" opacity="1.000000" stroke="none" 
	d="
M400.996490,238.831665 
	C392.694489,238.887527 384.383148,239.207001 376.093445,238.914246 
	C369.685120,238.687943 366.241547,235.136459 366.935242,229.447647 
	C367.294525,226.501404 367.350647,223.424011 366.924713,220.495911 
	C366.054962,214.516754 370.943604,210.999329 376.647186,211.001923 
	C384.454498,211.005493 392.261810,211.017349 400.444153,211.462585 
	C397.850433,220.896820 397.961792,229.873871 400.996490,238.831665 
z"/>
<path fill="#FD4C85" opacity="1.000000" stroke="none" 
	d="
M401.460327,238.904541 
	C397.961792,229.873871 397.850433,220.896820 400.907776,211.533905 
	C406.976624,211.113190 412.957855,210.966553 418.936829,211.031036 
	C423.982635,211.085419 427.846100,215.001648 427.980316,220.043518 
	C428.068756,223.365677 428.073944,226.694305 427.978912,230.016098 
	C427.834686,235.057617 423.962341,238.900070 418.878662,238.976501 
	C413.228424,239.061447 407.575775,238.984100 401.460327,238.904541 
z"/>
<path fill="#FE838A" opacity="1.000000" stroke="none" 
	d="
M156.995514,57.832577 
	C156.760147,52.780144 156.524780,47.727711 156.122375,42.286926 
	C157.300400,41.598114 158.644165,41.043861 159.990723,41.036999 
	C171.682617,40.977413 183.375015,41.016090 195.640350,41.421333 
	C199.345749,44.260551 200.518616,47.422562 200.044525,51.376301 
	C199.789871,53.499962 199.997925,55.679104 199.533585,57.904995 
	C185.045151,57.928711 171.020340,57.880646 156.995514,57.832577 
z"/>
<path fill="#FF978C" opacity="1.000000" stroke="none" 
	d="
M110.534698,211.095123 
	C113.905258,220.126083 114.176750,229.099960 111.077026,238.462738 
	C105.678581,238.888123 100.358093,239.037048 95.040184,238.972809 
	C90.022049,238.912186 86.144547,234.983078 86.014931,229.960663 
	C85.929131,226.635895 85.924370,223.305054 86.015968,219.980591 
	C86.153740,214.980652 90.060326,211.104813 95.100548,211.020248 
	C100.089455,210.936569 105.081070,211.015152 110.534698,211.095123 
z"/>
<path fill="#FE7A89" opacity="1.000000" stroke="none" 
	d="
M199.997192,57.833214 
	C199.997925,55.679104 199.789871,53.499962 200.044525,51.376301 
	C200.518616,47.422562 199.345749,44.260551 196.103760,41.493279 
	C209.352524,41.120777 222.710999,41.072128 236.417297,41.429432 
	C235.843307,44.347610 234.542114,46.795685 234.103516,49.389614 
	C233.639893,52.131516 233.997971,55.012352 233.533569,57.904465 
	C222.045746,57.928696 211.021469,57.880955 199.997192,57.833214 
z"/>
<path fill="#FE6988" opacity="1.000000" stroke="none" 
	d="
M259.997009,41.167645 
	C274.021606,41.119312 288.046173,41.070984 302.426697,41.418400 
	C299.659210,44.262730 298.479645,47.422436 298.954620,51.376839 
	C299.209686,53.500347 298.998993,55.679806 298.534668,57.905479 
	C287.379822,57.928860 276.688721,57.880787 265.998138,57.383026 
	C266.286346,50.807018 266.915741,44.550636 259.997009,41.167645 
z"/>
<path fill="#FE5A87" opacity="1.000000" stroke="none" 
	d="
M363.561157,42.095139 
	C363.665619,47.752262 363.332794,53.338371 362.609314,59.310127 
	C358.581665,59.130474 354.959991,58.245564 351.304291,58.070381 
	C344.880005,57.762531 338.434875,57.888931 331.998962,57.381317 
	C331.942474,50.935150 333.559021,44.304047 325.998962,41.166245 
	C338.373932,41.452206 350.748901,41.738163 363.561157,42.095139 
z"/>
<path fill="#FE6287" opacity="1.000000" stroke="none" 
	d="
M325.535217,41.094910 
	C333.559021,44.304047 331.942474,50.935150 331.535217,57.452709 
	C320.380096,57.928844 309.689270,57.881432 298.998444,57.834019 
	C298.998993,55.679806 299.209686,53.500347 298.954620,51.376839 
	C298.479645,47.422436 299.659210,44.262730 302.890411,41.489807 
	C310.355957,41.118176 317.713684,41.070877 325.535217,41.094910 
z"/>
<path fill="#FE7389" opacity="1.000000" stroke="none" 
	d="
M259.533417,41.096260 
	C266.915741,44.550636 266.286346,50.807018 265.534424,57.454430 
	C254.712509,57.927841 244.354813,57.880169 233.997101,57.832497 
	C233.997971,55.012352 233.639893,52.131516 234.103516,49.389614 
	C234.542114,46.795685 235.843307,44.347610 236.880829,41.501358 
	C244.354309,41.119846 251.712067,41.072361 259.533417,41.096260 
z"/>
<path fill="#000000" opacity="1.000000" stroke="none" 
	d="
M238.972687,270.360657 
	C247.606339,261.187561 259.049591,256.415131 273.600891,268.057068 
	C281.138947,276.872314 280.112549,287.306335 280.013977,297.571899 
	C279.940826,305.191376 279.999573,312.812103 279.999573,320.975647 
	C288.897308,320.975647 297.483490,320.975647 306.533264,320.904175 
	C313.991302,321.113007 321.144928,320.508575 327.551636,324.231506 
	C329.497589,325.362305 331.304932,326.731598 333.531311,328.017578 
	C333.886841,328.043457 334.004608,328.528290 334.046570,329.033630 
	C334.378113,329.734253 334.667755,329.929535 334.957367,330.124817 
	C342.008881,339.375092 341.957397,349.617584 334.839905,358.680328 
	C334.046448,359.690643 333.372711,360.795044 332.323425,362.005219 
	C323.266327,368.849426 313.034363,368.132874 302.461182,368.093018 
	C294.875366,368.166290 287.752472,368.166290 279.999573,368.166290 
	C279.999573,379.320679 280.047852,390.390533 279.967102,401.459381 
	C279.945740,404.385529 279.822845,407.370209 279.231415,410.221130 
	C277.786713,417.185211 273.113281,421.736542 267.098877,425.564941 
	C262.410278,426.282318 257.819885,427.261688 253.314011,426.963562 
	C244.045914,426.350342 238.773346,420.159973 234.931671,412.017456 
	C234.554596,407.113159 234.093597,402.526367 234.035675,397.934540 
	C233.912247,388.147095 233.997955,378.357025 233.997955,368.018158 
	C222.099731,368.018158 210.512360,368.018158 198.461334,368.092224 
	C186.841354,366.616089 177.904297,362.207123 174.725266,350.261017 
	C171.197342,337.003784 179.349915,326.038879 191.476410,322.050415 
	C193.301071,321.450256 195.281494,321.323669 197.593842,320.905884 
	C208.799133,320.888245 219.600449,320.943176 230.401779,320.996704 
	C231.381271,321.001556 232.360809,320.997345 233.997955,320.997345 
	C233.997955,311.046997 233.980743,301.311371 234.004105,291.575806 
	C234.019348,285.222534 233.134338,278.710815 237.004120,272.982086 
	C237.549118,272.175262 238.213257,271.448914 238.972687,270.360657 
M297.071838,336.022278 
	C287.728821,335.976624 278.385803,335.930969 268.755005,335.242035 
	C265.824188,332.907135 264.881653,329.913361 264.929718,326.154510 
	C265.103973,312.528198 265.009735,298.898285 264.993256,285.269745 
	C264.985840,279.158295 262.041870,275.876434 256.754822,276.000427 
	C251.752762,276.117737 249.011688,279.359955 249.004303,285.257172 
	C248.988098,298.220917 248.999481,311.184662 248.999359,324.148407 
	C248.999268,334.001160 247.479050,335.661591 237.070068,336.023804 
	C224.425110,336.015747 211.765533,335.637634 199.140594,336.136414 
	C191.383652,336.442841 188.809891,339.148102 188.961700,344.531616 
	C189.126022,350.359711 192.070328,352.996246 199.072968,352.989929 
	C211.714325,352.978516 224.355606,352.889709 237.858902,352.980591 
	C247.130768,353.043640 248.998932,354.936615 248.999268,364.272430 
	C248.999741,377.433746 248.987915,390.595032 249.004440,403.756348 
	C249.011826,409.638550 251.794724,412.903595 256.805267,412.999603 
	C262.092987,413.100891 264.986938,409.822784 264.993896,403.647705 
	C265.008728,390.486389 265.176453,377.321350 264.899323,364.165863 
	C264.805542,359.712982 265.860565,356.126251 269.970184,353.016663 
	C279.313232,352.956116 288.656281,352.895569 298.926422,352.981262 
	C304.733429,352.987091 310.554474,353.240845 316.342499,352.912354 
	C320.260956,352.689972 324.342224,351.719269 324.954498,346.763458 
	C325.781769,340.067291 324.705933,337.883972 318.612183,337.058319 
	C311.825562,336.138763 304.877441,336.411285 297.071838,336.022278 
z"/>
<path fill="#FE6187" opacity="1.000000" stroke="none" 
	d="
M334.859467,329.914185 
	C334.667755,329.929535 334.378113,329.734253 334.123108,329.271088 
	C334.404724,329.197205 334.605988,329.430664 334.859467,329.914185 
z"/>
<path fill="#000000" opacity="1.000000" stroke="none" 
	d="
M233.533569,57.904465 
	C244.354813,57.880169 254.712509,57.927841 265.533936,57.904114 
	C276.688721,57.880787 287.379822,57.928860 298.534668,57.905479 
	C309.689270,57.881432 320.380096,57.928844 331.534698,57.904861 
	C338.434875,57.888931 344.880005,57.762531 351.304291,58.070381 
	C354.959991,58.245564 358.581665,59.130474 362.609070,59.764771 
	C370.005768,62.978531 372.735596,69.189690 372.859375,76.061340 
	C373.233551,96.834717 372.994598,117.619133 372.994598,139.019226 
	C368.787262,139.019226 364.853302,139.019226 360.458771,139.092102 
	C349.307709,139.116379 338.617218,139.067795 327.463135,139.092224 
	C316.641937,139.116425 306.284332,139.067612 295.463135,139.091858 
	C283.308319,139.116104 271.617157,139.067291 259.462402,139.092224 
	C249.641006,139.117020 240.283218,139.068054 230.461746,139.092865 
	C219.306808,139.117020 208.615555,139.067398 197.460495,139.091766 
	C188.972397,139.116867 180.948074,139.068008 172.459961,139.093353 
	C164.305832,139.118134 156.615524,139.068726 148.461578,139.093384 
	C145.854736,139.068878 143.711548,138.970337 141.275116,138.858292 
	C141.181808,137.547089 141.012222,136.264923 141.011078,134.982605 
	C140.993973,116.041847 140.865082,97.099663 141.062790,78.160950 
	C141.146286,70.163101 143.284409,62.953918 151.790894,59.664902 
	C153.268021,59.093773 154.800201,58.665096 156.651245,58.001602 
	C171.020340,57.880646 185.045151,57.928711 199.533585,57.904995 
	C211.021469,57.880955 222.045746,57.928696 233.533569,57.904465 
z"/>
<path fill="#FE7089" opacity="1.000000" stroke="none" 
	d="
M237.997467,336.166473 
	C247.479050,335.661591 248.999268,334.001160 248.999359,324.148407 
	C248.999481,311.184662 248.988098,298.220917 249.004303,285.257172 
	C249.011688,279.359955 251.752762,276.117737 256.754822,276.000427 
	C262.041870,275.876434 264.985840,279.158295 264.993256,285.269745 
	C265.009735,298.898285 265.103973,312.528198 264.929718,326.154510 
	C264.881653,329.913361 265.824188,332.907135 268.888977,336.038727 
	C269.029602,342.261780 269.036224,347.688171 269.042847,353.114532 
	C265.860565,356.126251 264.805542,359.712982 264.899323,364.165863 
	C265.176453,377.321350 265.008728,390.486389 264.993896,403.647705 
	C264.986938,409.822784 262.092987,413.100891 256.805267,412.999603 
	C251.794724,412.903595 249.011826,409.638550 249.004440,403.756348 
	C248.987915,390.595032 248.999741,377.433746 248.999268,364.272430 
	C248.998932,354.936615 247.130768,353.043640 237.340210,352.542908 
	C234.007660,346.555756 233.780014,341.197144 237.997467,336.166473 
z"/>
<path fill="#FE7B89" opacity="1.000000" stroke="none" 
	d="
M237.533768,336.095154 
	C233.780014,341.197144 234.007660,346.555756 236.909210,352.469238 
	C224.355606,352.889709 211.714325,352.978516 199.072968,352.989929 
	C192.070328,352.996246 189.126022,350.359711 188.961700,344.531616 
	C188.809891,339.148102 191.383652,336.442841 199.140594,336.136414 
	C211.765533,335.637634 224.425110,336.015747 237.533768,336.095154 
z"/>
<path fill="#FE6287" opacity="1.000000" stroke="none" 
	d="
M297.999603,336.164917 
	C304.877441,336.411285 311.825562,336.138763 318.612183,337.058319 
	C324.705933,337.883972 325.781769,340.067291 324.954498,346.763458 
	C324.342224,351.719269 320.260956,352.689972 316.342499,352.912354 
	C310.554474,353.240845 304.733429,352.987091 298.347351,352.574432 
	C293.746216,347.430450 293.824005,342.048859 297.999603,336.164917 
z"/>
<path fill="#FE6988" opacity="1.000000" stroke="none" 
	d="
M297.535706,336.093597 
	C293.824005,342.048859 293.746216,347.430450 297.883789,352.501312 
	C288.656281,352.895569 279.313232,352.956116 269.506531,353.065613 
	C269.036224,347.688171 269.029602,342.261780 269.032898,336.360352 
	C278.385803,335.930969 287.728821,335.976624 297.535706,336.093597 
z"/>
</svg>